solid OpenSCAD_Model
  facet normal 0.951056 0.309017 -0
    outer loop
      vertex 3 0 3
      vertex 2.42705 1.76336 5
      vertex 3 0 5
    endloop
  endfacet
  facet normal 0.951056 0.309017 0
    outer loop
      vertex 2.42705 1.76336 5
      vertex 3 0 3
      vertex 2.42705 1.76336 2
    endloop
  endfacet
  facet normal 0.951056 0.309017 0
    outer loop
      vertex 2.42705 1.76336 2
      vertex 3 0 3
      vertex 3 0 2
    endloop
  endfacet
  facet normal -0.951056 0.309017 0
    outer loop
      vertex -3 0 0
      vertex -2.42705 1.76336 5
      vertex -2.42705 1.76336 0
    endloop
  endfacet
  facet normal -0.951056 0.309017 0
    outer loop
      vertex -2.42705 1.76336 5
      vertex -3 0 0
      vertex -3 0 5
    endloop
  endfacet
  facet normal 0 1 0
    outer loop
      vertex 0.059441 2.85317 2
      vertex 0.927051 2.85317 5
      vertex 0.927051 2.85317 2
    endloop
  endfacet
  facet normal 0 1 0
    outer loop
      vertex 0.927051 2.85317 5
      vertex 0.059441 2.85317 2
      vertex -0.927051 2.85317 5
    endloop
  endfacet
  facet normal 0 1 0
    outer loop
      vertex -0.927051 2.85317 0
      vertex 0.059441 2.85317 2
      vertex 0.059441 2.85317 0
    endloop
  endfacet
  facet normal 0 1 0
    outer loop
      vertex 0.059441 2.85317 2
      vertex -0.927051 2.85317 0
      vertex -0.927051 2.85317 5
    endloop
  endfacet
  facet normal 0.587785 0.809017 -0
    outer loop
      vertex 2.42705 1.76336 2
      vertex 0.927051 2.85317 5
      vertex 2.42705 1.76336 5
    endloop
  endfacet
  facet normal 0.587785 0.809017 0
    outer loop
      vertex 0.927051 2.85317 5
      vertex 2.42705 1.76336 2
      vertex 0.927051 2.85317 2
    endloop
  endfacet
  facet normal 0 0 1
    outer loop
      vertex 1.5 0 5
      vertex 3 0 5
      vertex 2.42705 1.76336 5
    endloop
  endfacet
  facet normal 0 0 1
    outer loop
      vertex 3 0 5
      vertex 1.5 0 5
      vertex 2.42705 -1.76336 5
    endloop
  endfacet
  facet normal 0 0 1
    outer loop
      vertex 0.463525 1.42658 5
      vertex 2.42705 1.76336 5
      vertex 0.927051 2.85317 5
    endloop
  endfacet
  facet normal 0 0 1
    outer loop
      vertex 2.42705 1.76336 5
      vertex 0.463525 1.42658 5
      vertex 1.5 0 5
    endloop
  endfacet
  facet normal -0 0 1
    outer loop
      vertex -0.927051 2.85317 5
      vertex 0.463525 1.42658 5
      vertex 0.927051 2.85317 5
    endloop
  endfacet
  facet normal 0 0 1
    outer loop
      vertex -0.927051 2.85317 5
      vertex -1.21352 0.881678 5
      vertex 0.463525 1.42658 5
    endloop
  endfacet
  facet normal 0 0 1
    outer loop
      vertex -3 0 5
      vertex -1.21352 0.881678 5
      vertex -2.42705 1.76336 5
    endloop
  endfacet
  facet normal -0 0 1
    outer loop
      vertex -2.42705 1.76336 5
      vertex -1.21352 0.881678 5
      vertex -0.927051 2.85317 5
    endloop
  endfacet
  facet normal -0 0 1
    outer loop
      vertex 0.463525 -1.42658 5
      vertex 2.42705 -1.76336 5
      vertex 1.5 0 5
    endloop
  endfacet
  facet normal 0 0 1
    outer loop
      vertex 2.42705 -1.76336 5
      vertex 0.463525 -1.42658 5
      vertex 0.927051 -2.85317 5
    endloop
  endfacet
  facet normal 0 0 1
    outer loop
      vertex 0.463525 -1.42658 5
      vertex -0.927051 -2.85317 5
      vertex 0.927051 -2.85317 5
    endloop
  endfacet
  facet normal 0 0 1
    outer loop
      vertex -1.21352 -0.881678 5
      vertex -0.927051 -2.85317 5
      vertex 0.463525 -1.42658 5
    endloop
  endfacet
  facet normal 0 0 1
    outer loop
      vertex -1.21352 0.881678 5
      vertex -3 0 5
      vertex -1.21352 -0.881678 5
    endloop
  endfacet
  facet normal 0 0 1
    outer loop
      vertex -1.21352 -0.881678 5
      vertex -2.42705 -1.76336 5
      vertex -0.927051 -2.85317 5
    endloop
  endfacet
  facet normal 0 0 1
    outer loop
      vertex -1.21352 -0.881678 5
      vertex -3 0 5
      vertex -2.42705 -1.76336 5
    endloop
  endfacet
  facet normal -0.587785 0.809017 0
    outer loop
      vertex -0.927051 2.85317 0
      vertex -2.42705 1.76336 5
      vertex -0.927051 2.85317 5
    endloop
  endfacet
  facet normal -0.587785 0.809017 0
    outer loop
      vertex -2.42705 1.76336 5
      vertex -0.927051 2.85317 0
      vertex -2.42705 1.76336 0
    endloop
  endfacet
  facet normal 0.951056 -0.309017 0
    outer loop
      vertex 2.42705 -1.76336 5
      vertex 3 0 3
      vertex 3 0 5
    endloop
  endfacet
  facet normal 0.951056 -0.309017 0
    outer loop
      vertex 3 0 3
      vertex 2.42705 -1.76336 5
      vertex 2.42705 -1.76336 3
    endloop
  endfacet
  facet normal -0.951056 -0.309017 0
    outer loop
      vertex -2.42705 -1.76336 0
      vertex -3 0 5
      vertex -3 0 0
    endloop
  endfacet
  facet normal -0.951056 -0.309017 0
    outer loop
      vertex -3 0 5
      vertex -2.42705 -1.76336 0
      vertex -2.42705 -1.76336 5
    endloop
  endfacet
  facet normal 0 -1 0
    outer loop
      vertex -0.927051 -2.85317 5
      vertex 0 -2.85317 3
      vertex 0.927051 -2.85317 5
    endloop
  endfacet
  facet normal 0 -1 0
    outer loop
      vertex -0.927051 -2.85317 0
      vertex 0 -2.85317 3
      vertex -0.927051 -2.85317 5
    endloop
  endfacet
  facet normal 0 -1 -0
    outer loop
      vertex 0 -2.85317 3
      vertex -0.927051 -2.85317 0
      vertex 0 -2.85317 0
    endloop
  endfacet
  facet normal 0 -1 -0
    outer loop
      vertex 0.927051 -2.85317 5
      vertex 0 -2.85317 3
      vertex 0.927051 -2.85317 3
    endloop
  endfacet
  facet normal 0.587785 -0.809017 0
    outer loop
      vertex 0.927051 -2.85317 3
      vertex 2.42705 -1.76336 5
      vertex 0.927051 -2.85317 5
    endloop
  endfacet
  facet normal 0.587785 -0.809017 0
    outer loop
      vertex 2.42705 -1.76336 5
      vertex 0.927051 -2.85317 3
      vertex 2.42705 -1.76336 3
    endloop
  endfacet
  facet normal 0 0 -1
    outer loop
      vertex -0.927051 -2.85317 0
      vertex 0 -1.27598 0
      vertex 0 -2.85317 0
    endloop
  endfacet
  facet normal 0 0 -1
    outer loop
      vertex -0.927051 -2.85317 0
      vertex -1.21352 -0.881678 0
      vertex 0 -1.27598 0
    endloop
  endfacet
  facet normal 0 0 -1
    outer loop
      vertex -3 0 0
      vertex -1.21352 -0.881678 0
      vertex -2.42705 -1.76336 0
    endloop
  endfacet
  facet normal 0 0 -1
    outer loop
      vertex -2.42705 -1.76336 0
      vertex -1.21352 -0.881678 0
      vertex -0.927051 -2.85317 0
    endloop
  endfacet
  facet normal 0 0 -1
    outer loop
      vertex 20 -6 0
      vertex 3 3 0
      vertex 20 0 0
    endloop
  endfacet
  facet normal 0 0 -1
    outer loop
      vertex 4 45 0
      vertex 1 48 0
      vertex 2.5 48 0
    endloop
  endfacet
  facet normal 0 0 -1
    outer loop
      vertex 4 45 0
      vertex 0.973596 46.7326 0
      vertex 1 48 0
    endloop
  endfacet
  facet normal 0 0 -1
    outer loop
      vertex 4 45 0
      vertex 0.940559 45.1468 0
      vertex 0.973596 46.7326 0
    endloop
  endfacet
  facet normal -0 0 -1
    outer loop
      vertex 3 3 0
      vertex 0.059441 2.85317 0
      vertex 0.940559 45.1468 0
    endloop
  endfacet
  facet normal 0 0 -1
    outer loop
      vertex 0 -2.85317 0
      vertex 3 3 0
      vertex 20 -6 0
    endloop
  endfacet
  facet normal 0 0 -1
    outer loop
      vertex 3 3 0
      vertex 0.026764 1.28467 0
      vertex 0.059441 2.85317 0
    endloop
  endfacet
  facet normal 0 0 -1
    outer loop
      vertex 0 -2.85317 0
      vertex 20 -6 0
      vertex 0 -6 0
    endloop
  endfacet
  facet normal 0 0 -1
    outer loop
      vertex 3 3 0
      vertex 0 -2.85317 0
      vertex 0 -1.27598 0
    endloop
  endfacet
  facet normal 0 0 -1
    outer loop
      vertex 3 3 0
      vertex 0 -1.27598 0
      vertex 0 0 0
    endloop
  endfacet
  facet normal 0 0 -1
    outer loop
      vertex 3 3 0
      vertex 0 0 0
      vertex 0.026764 1.28467 0
    endloop
  endfacet
  facet normal 0 0 -1
    outer loop
      vertex 20 0 0
      vertex 78.5 3 0
      vertex 78.5 0 0
    endloop
  endfacet
  facet normal -0 0 -1
    outer loop
      vertex 78.5 3 0
      vertex 20 0 0
      vertex 3 3 0
    endloop
  endfacet
  facet normal 0 0 -1
    outer loop
      vertex 76.5 48 0
      vertex 78 48 0
      vertex 77.427 46.2366 0
    endloop
  endfacet
  facet normal 0 0 -1
    outer loop
      vertex 78 48 0
      vertex 76.5 48 0
      vertex 77.427 49.7634 0
    endloop
  endfacet
  facet normal 0 0 -1
    outer loop
      vertex 75.4635 46.5734 0
      vertex 77.427 46.2366 0
      vertex 75.927 45.1468 0
    endloop
  endfacet
  facet normal 0 0 -1
    outer loop
      vertex 77.427 46.2366 0
      vertex 75.4635 46.5734 0
      vertex 76.5 48 0
    endloop
  endfacet
  facet normal 0 0 -1
    outer loop
      vertex 75.3864 45.1468 0
      vertex 75.4635 46.5734 0
      vertex 75.927 45.1468 0
    endloop
  endfacet
  facet normal -0 0 -1
    outer loop
      vertex 75.4635 46.5734 0
      vertex 75.3864 45.1468 0
      vertex 75.1807 46.6653 0
    endloop
  endfacet
  facet normal 0 0 -1
    outer loop
      vertex 75.4635 49.4266 0
      vertex 77.427 49.7634 0
      vertex 76.5 48 0
    endloop
  endfacet
  facet normal -0 0 -1
    outer loop
      vertex 77.427 49.7634 0
      vertex 75.4635 49.4266 0
      vertex 75.927 50.8532 0
    endloop
  endfacet
  facet normal 0 0 -1
    outer loop
      vertex 75.4635 49.4266 0
      vertex 74.073 50.8532 0
      vertex 75.927 50.8532 0
    endloop
  endfacet
  facet normal 0 0 -1
    outer loop
      vertex 73.7865 48.8817 0
      vertex 74.073 50.8532 0
      vertex 75.4635 49.4266 0
    endloop
  endfacet
  facet normal 0 0 -1
    outer loop
      vertex 74.073 50.8532 0
      vertex 73.7865 48.8817 0
      vertex 72.573 49.7634 0
    endloop
  endfacet
  facet normal 0 0 -1
    outer loop
      vertex 0.0729494 45.1468 0
      vertex 0.973596 46.7326 0
      vertex 0.940559 45.1468 0
    endloop
  endfacet
  facet normal 0 0 -1
    outer loop
      vertex 0.0729494 45.1468 0
      vertex -0.213525 47.1183 0
      vertex 0.973596 46.7326 0
    endloop
  endfacet
  facet normal 0 0 -1
    outer loop
      vertex -2 48 0
      vertex -0.213525 47.1183 0
      vertex -1.42705 46.2366 0
    endloop
  endfacet
  facet normal 0 0 -1
    outer loop
      vertex -1.42705 46.2366 0
      vertex -0.213525 47.1183 0
      vertex 0.0729494 45.1468 0
    endloop
  endfacet
  facet normal 0 0 -1
    outer loop
      vertex 0.026764 1.28467 0
      vertex -0.927051 2.85317 0
      vertex 0.059441 2.85317 0
    endloop
  endfacet
  facet normal 0 0 -1
    outer loop
      vertex -1.21352 0.881678 0
      vertex -0.927051 2.85317 0
      vertex 0.026764 1.28467 0
    endloop
  endfacet
  facet normal 0 0 -1
    outer loop
      vertex -1.21352 -0.881678 0
      vertex -3 0 0
      vertex -1.21352 0.881678 0
    endloop
  endfacet
  facet normal 0 0 -1
    outer loop
      vertex -1.21352 0.881678 0
      vertex -2.42705 1.76336 0
      vertex -0.927051 2.85317 0
    endloop
  endfacet
  facet normal -0 0 -1
    outer loop
      vertex -1.21352 0.881678 0
      vertex -3 0 0
      vertex -2.42705 1.76336 0
    endloop
  endfacet
  facet normal 0 0 -1
    outer loop
      vertex 80.2865 0 0
      vertex 81.3345 1.2222 0
      vertex 81.5 0 0
    endloop
  endfacet
  facet normal 0 0 -1
    outer loop
      vertex 78.5 3 0
      vertex 81.3345 1.2222 0
      vertex 80.2865 0 0
    endloop
  endfacet
  facet normal 0 0 -1
    outer loop
      vertex 80.2865 -0.881678 0
      vertex 78.5 0 0
      vertex 80.2865 0 0
    endloop
  endfacet
  facet normal 0 0 -1
    outer loop
      vertex 78.5 3 0
      vertex 80.2865 0 0
      vertex 78.5 0 0
    endloop
  endfacet
  facet normal 0 0 -1
    outer loop
      vertex 81.3345 1.2222 0
      vertex 78.5 3 0
      vertex 81.1136 2.85317 0
    endloop
  endfacet
  facet normal 0 0 -1
    outer loop
      vertex 78.5 3 0
      vertex 75.3864 45.1468 0
      vertex 81.1136 2.85317 0
    endloop
  endfacet
  facet normal 0 0 -1
    outer loop
      vertex 72 45 0
      vertex 75.3864 45.1468 0
      vertex 78.5 3 0
    endloop
  endfacet
  facet normal -0 0 -1
    outer loop
      vertex 75.3864 45.1468 0
      vertex 72 45 0
      vertex 75.1807 46.6653 0
    endloop
  endfacet
  facet normal 0 -0 -1
    outer loop
      vertex 73.7865 48 0
      vertex 75.1807 46.6653 0
      vertex 72 45 0
    endloop
  endfacet
  facet normal 0 0 -1
    outer loop
      vertex 72 48 0
      vertex 73.7865 48.8817 0
      vertex 73.7865 48 0
    endloop
  endfacet
  facet normal 0 0 -1
    outer loop
      vertex 75.1807 46.6653 0
      vertex 73.7865 48 0
      vertex 75 48 0
    endloop
  endfacet
  facet normal 0 0 -1
    outer loop
      vertex 72 48 0
      vertex 73.7865 48 0
      vertex 72 45 0
    endloop
  endfacet
  facet normal -0 0 -1
    outer loop
      vertex 73.7865 48.8817 0
      vertex 72 48 0
      vertex 72.573 49.7634 0
    endloop
  endfacet
  facet normal 0 0 -1
    outer loop
      vertex 4 45 0
      vertex 72 48 0
      vertex 72 45 0
    endloop
  endfacet
  facet normal 0 0 -1
    outer loop
      vertex 4 45 0
      vertex 4 48 0
      vertex 72 48 0
    endloop
  endfacet
  facet normal 0 0 -1
    outer loop
      vertex 2.5 48 0
      vertex 4 48 0
      vertex 4 45 0
    endloop
  endfacet
  facet normal 0 0 -1
    outer loop
      vertex 0.940559 45.1468 0
      vertex 4 45 0
      vertex 3 3 0
    endloop
  endfacet
  facet normal 0 0 -1
    outer loop
      vertex 4 48 0
      vertex 2.5 48 0
      vertex 3.42705 49.7634 0
    endloop
  endfacet
  facet normal 0 0 -1
    outer loop
      vertex 1.46352 49.4266 0
      vertex 3.42705 49.7634 0
      vertex 2.5 48 0
    endloop
  endfacet
  facet normal -0 0 -1
    outer loop
      vertex 3.42705 49.7634 0
      vertex 1.46352 49.4266 0
      vertex 1.92705 50.8532 0
    endloop
  endfacet
  facet normal 0 0 -1
    outer loop
      vertex 1.46352 49.4266 0
      vertex 0.0729494 50.8532 0
      vertex 1.92705 50.8532 0
    endloop
  endfacet
  facet normal 0 0 -1
    outer loop
      vertex -0.213525 48.8817 0
      vertex 0.0729494 50.8532 0
      vertex 1.46352 49.4266 0
    endloop
  endfacet
  facet normal 0 0 -1
    outer loop
      vertex -0.213525 47.1183 0
      vertex -2 48 0
      vertex -0.213525 48.8817 0
    endloop
  endfacet
  facet normal 0 0 -1
    outer loop
      vertex -0.213525 48.8817 0
      vertex -1.42705 49.7634 0
      vertex 0.0729494 50.8532 0
    endloop
  endfacet
  facet normal -0 0 -1
    outer loop
      vertex -0.213525 48.8817 0
      vertex -2 48 0
      vertex -1.42705 49.7634 0
    endloop
  endfacet
  facet normal 0 0 -1
    outer loop
      vertex 83 0 0
      vertex 84.5 0 0
      vertex 83.927 -1.76336 0
    endloop
  endfacet
  facet normal 0 0 -1
    outer loop
      vertex 84.5 0 0
      vertex 83 0 0
      vertex 83.927 1.76336 0
    endloop
  endfacet
  facet normal 0 0 -1
    outer loop
      vertex 81.9635 -1.42658 0
      vertex 83.927 -1.76336 0
      vertex 82.427 -2.85317 0
    endloop
  endfacet
  facet normal 0 0 -1
    outer loop
      vertex 83.927 -1.76336 0
      vertex 81.9635 -1.42658 0
      vertex 83 0 0
    endloop
  endfacet
  facet normal 0 0 -1
    outer loop
      vertex 80.573 -2.85317 0
      vertex 81.9635 -1.42658 0
      vertex 82.427 -2.85317 0
    endloop
  endfacet
  facet normal 0 0 -1
    outer loop
      vertex 80.573 -2.85317 0
      vertex 80.2865 -0.881678 0
      vertex 81.9635 -1.42658 0
    endloop
  endfacet
  facet normal 0 0 -1
    outer loop
      vertex 78.5 0 0
      vertex 80.2865 -0.881678 0
      vertex 79.073 -1.76336 0
    endloop
  endfacet
  facet normal 0 0 -1
    outer loop
      vertex 79.073 -1.76336 0
      vertex 80.2865 -0.881678 0
      vertex 80.573 -2.85317 0
    endloop
  endfacet
  facet normal 0 0 -1
    outer loop
      vertex 81.9635 1.42658 0
      vertex 83.927 1.76336 0
      vertex 83 0 0
    endloop
  endfacet
  facet normal -0 0 -1
    outer loop
      vertex 83.927 1.76336 0
      vertex 81.9635 1.42658 0
      vertex 82.427 2.85317 0
    endloop
  endfacet
  facet normal 0 0 -1
    outer loop
      vertex 81.1136 2.85317 0
      vertex 81.9635 1.42658 0
      vertex 81.3345 1.2222 0
    endloop
  endfacet
  facet normal 0 0 -1
    outer loop
      vertex 81.9635 1.42658 0
      vertex 81.1136 2.85317 0
      vertex 82.427 2.85317 0
    endloop
  endfacet
  facet normal -0.587785 -0.809017 0
    outer loop
      vertex -2.42705 -1.76336 0
      vertex -0.927051 -2.85317 5
      vertex -2.42705 -1.76336 5
    endloop
  endfacet
  facet normal -0.587785 -0.809017 -0
    outer loop
      vertex -0.927051 -2.85317 5
      vertex -2.42705 -1.76336 0
      vertex -0.927051 -2.85317 0
    endloop
  endfacet
  facet normal -0.809017 -0.587786 -0
    outer loop
      vertex 1.5 0 3
      vertex 0.463525 1.42658 2
      vertex 1.5 0 2
    endloop
  endfacet
  facet normal -0.809017 -0.587786 0
    outer loop
      vertex 0.463525 1.42658 2
      vertex 1.5 0 3
      vertex 0.463525 1.42658 5
    endloop
  endfacet
  facet normal -0.809017 -0.587786 0
    outer loop
      vertex 0.463525 1.42658 5
      vertex 1.5 0 3
      vertex 1.5 0 5
    endloop
  endfacet
  facet normal 1 -0 0
    outer loop
      vertex -1.21352 -0.881678 5
      vertex -1.21352 0.881678 0
      vertex -1.21352 0.881678 5
    endloop
  endfacet
  facet normal 1 0 0
    outer loop
      vertex -1.21352 0.881678 0
      vertex -1.21352 -0.881678 5
      vertex -1.21352 -0.881678 0
    endloop
  endfacet
  facet normal 0.309017 -0.951056 -3.69259e-09
    outer loop
      vertex -1.21352 0.881678 5
      vertex 0.026764 1.28467 2
      vertex 0.463525 1.42658 5
    endloop
  endfacet
  facet normal 0.309017 -0.951056 0
    outer loop
      vertex -1.21352 0.881678 0
      vertex 0.026764 1.28467 2
      vertex -1.21352 0.881678 5
    endloop
  endfacet
  facet normal 0.309017 -0.951056 0
    outer loop
      vertex 0.026764 1.28467 2
      vertex -1.21352 0.881678 0
      vertex 0.026764 1.28467 0
    endloop
  endfacet
  facet normal 0.309017 -0.951056 0
    outer loop
      vertex 0.463525 1.42658 5
      vertex 0.026764 1.28467 2
      vertex 0.463525 1.42658 2
    endloop
  endfacet
  facet normal 0.309017 0.951056 0
    outer loop
      vertex 0 -1.27598 3
      vertex 0.463525 -1.42658 5
      vertex 0.463525 -1.42658 3
    endloop
  endfacet
  facet normal 0.309017 0.951056 1.59794e-08
    outer loop
      vertex 0.463525 -1.42658 5
      vertex 0 -1.27598 3
      vertex -1.21352 -0.881678 5
    endloop
  endfacet
  facet normal 0.309017 0.951056 0
    outer loop
      vertex -1.21352 -0.881678 0
      vertex 0 -1.27598 3
      vertex 0 -1.27598 0
    endloop
  endfacet
  facet normal 0.309017 0.951056 0
    outer loop
      vertex 0 -1.27598 3
      vertex -1.21352 -0.881678 0
      vertex -1.21352 -0.881678 5
    endloop
  endfacet
  facet normal -0.809017 0.587786 0
    outer loop
      vertex 0.463525 -1.42658 3
      vertex 1.5 0 5
      vertex 1.5 0 3
    endloop
  endfacet
  facet normal -0.809017 0.587786 0
    outer loop
      vertex 1.5 0 5
      vertex 0.463525 -1.42658 3
      vertex 0.463525 -1.42658 5
    endloop
  endfacet
  facet normal 0.951056 0.309019 0
    outer loop
      vertex 84.5 0 5
      vertex 83.927 1.76336 0
      vertex 83.927 1.76336 5
    endloop
  endfacet
  facet normal 0.951056 0.309019 0
    outer loop
      vertex 83.927 1.76336 0
      vertex 84.5 0 5
      vertex 84.5 0 0
    endloop
  endfacet
  facet normal -0.951056 0.309019 0
    outer loop
      vertex 78.5 0 2
      vertex 79.073 1.76336 5
      vertex 79.073 1.76336 2
    endloop
  endfacet
  facet normal -0.951056 0.309019 0
    outer loop
      vertex 79.073 1.76336 5
      vertex 78.5 0 2
      vertex 78.5 0 5
    endloop
  endfacet
  facet normal 0 1 0
    outer loop
      vertex 82.427 2.85317 5
      vertex 81.1136 2.85317 2
      vertex 80.573 2.85317 5
    endloop
  endfacet
  facet normal 0 1 -0
    outer loop
      vertex 82.427 2.85317 0
      vertex 81.1136 2.85317 2
      vertex 82.427 2.85317 5
    endloop
  endfacet
  facet normal 0 1 0
    outer loop
      vertex 81.1136 2.85317 2
      vertex 82.427 2.85317 0
      vertex 81.1136 2.85317 0
    endloop
  endfacet
  facet normal 0 1 0
    outer loop
      vertex 80.573 2.85317 5
      vertex 81.1136 2.85317 2
      vertex 80.573 2.85317 2
    endloop
  endfacet
  facet normal 0.587785 0.809017 -0
    outer loop
      vertex 83.927 1.76336 0
      vertex 82.427 2.85317 5
      vertex 83.927 1.76336 5
    endloop
  endfacet
  facet normal 0.587785 0.809017 0
    outer loop
      vertex 82.427 2.85317 5
      vertex 83.927 1.76336 0
      vertex 82.427 2.85317 0
    endloop
  endfacet
  facet normal 0 0 1
    outer loop
      vertex 83 0 5
      vertex 84.5 0 5
      vertex 83.927 1.76336 5
    endloop
  endfacet
  facet normal 0 0 1
    outer loop
      vertex 84.5 0 5
      vertex 83 0 5
      vertex 83.927 -1.76336 5
    endloop
  endfacet
  facet normal 0 0 1
    outer loop
      vertex 81.9635 1.42658 5
      vertex 83.927 1.76336 5
      vertex 82.427 2.85317 5
    endloop
  endfacet
  facet normal 0 0 1
    outer loop
      vertex 83.927 1.76336 5
      vertex 81.9635 1.42658 5
      vertex 83 0 5
    endloop
  endfacet
  facet normal -0 0 1
    outer loop
      vertex 80.573 2.85317 5
      vertex 81.9635 1.42658 5
      vertex 82.427 2.85317 5
    endloop
  endfacet
  facet normal 0 0 1
    outer loop
      vertex 80.573 2.85317 5
      vertex 80.2865 0.881678 5
      vertex 81.9635 1.42658 5
    endloop
  endfacet
  facet normal 0 0 1
    outer loop
      vertex 78.5 0 5
      vertex 80.2865 0.881678 5
      vertex 79.073 1.76336 5
    endloop
  endfacet
  facet normal -0 0 1
    outer loop
      vertex 79.073 1.76336 5
      vertex 80.2865 0.881678 5
      vertex 80.573 2.85317 5
    endloop
  endfacet
  facet normal -0 0 1
    outer loop
      vertex 81.9635 -1.42658 5
      vertex 83.927 -1.76336 5
      vertex 83 0 5
    endloop
  endfacet
  facet normal 0 0 1
    outer loop
      vertex 83.927 -1.76336 5
      vertex 81.9635 -1.42658 5
      vertex 82.427 -2.85317 5
    endloop
  endfacet
  facet normal 0 0 1
    outer loop
      vertex 81.9635 -1.42658 5
      vertex 80.573 -2.85317 5
      vertex 82.427 -2.85317 5
    endloop
  endfacet
  facet normal 0 0 1
    outer loop
      vertex 80.2865 -0.881678 5
      vertex 80.573 -2.85317 5
      vertex 81.9635 -1.42658 5
    endloop
  endfacet
  facet normal 0 0 1
    outer loop
      vertex 80.2865 0.881678 5
      vertex 78.5 0 5
      vertex 80.2865 -0.881678 5
    endloop
  endfacet
  facet normal 0 0 1
    outer loop
      vertex 80.2865 -0.881678 5
      vertex 79.073 -1.76336 5
      vertex 80.573 -2.85317 5
    endloop
  endfacet
  facet normal 0 0 1
    outer loop
      vertex 80.2865 -0.881678 5
      vertex 78.5 0 5
      vertex 79.073 -1.76336 5
    endloop
  endfacet
  facet normal -0.587785 0.809017 0
    outer loop
      vertex 80.573 2.85317 2
      vertex 79.073 1.76336 5
      vertex 80.573 2.85317 5
    endloop
  endfacet
  facet normal -0.587785 0.809017 0
    outer loop
      vertex 79.073 1.76336 5
      vertex 80.573 2.85317 2
      vertex 79.073 1.76336 2
    endloop
  endfacet
  facet normal 0.951056 -0.309019 0
    outer loop
      vertex 83.927 -1.76336 5
      vertex 84.5 0 0
      vertex 84.5 0 5
    endloop
  endfacet
  facet normal 0.951056 -0.309019 0
    outer loop
      vertex 84.5 0 0
      vertex 83.927 -1.76336 5
      vertex 83.927 -1.76336 0
    endloop
  endfacet
  facet normal -0.951056 -0.309019 0
    outer loop
      vertex 79.073 -1.76336 0
      vertex 78.5 0 2
      vertex 78.5 0 0
    endloop
  endfacet
  facet normal -0.951056 -0.309019 -0
    outer loop
      vertex 79.073 -1.76336 5
      vertex 78.5 0 2
      vertex 79.073 -1.76336 0
    endloop
  endfacet
  facet normal -0.951056 -0.309019 0
    outer loop
      vertex 78.5 0 2
      vertex 79.073 -1.76336 5
      vertex 78.5 0 5
    endloop
  endfacet
  facet normal 0 -1 0
    outer loop
      vertex 80.573 -2.85317 0
      vertex 82.427 -2.85317 5
      vertex 80.573 -2.85317 5
    endloop
  endfacet
  facet normal 0 -1 -0
    outer loop
      vertex 82.427 -2.85317 5
      vertex 80.573 -2.85317 0
      vertex 82.427 -2.85317 0
    endloop
  endfacet
  facet normal 0.587785 -0.809017 0
    outer loop
      vertex 82.427 -2.85317 0
      vertex 83.927 -1.76336 5
      vertex 82.427 -2.85317 5
    endloop
  endfacet
  facet normal 0.587785 -0.809017 0
    outer loop
      vertex 83.927 -1.76336 5
      vertex 82.427 -2.85317 0
      vertex 83.927 -1.76336 0
    endloop
  endfacet
  facet normal -0.587785 -0.809017 0
    outer loop
      vertex 79.073 -1.76336 0
      vertex 80.573 -2.85317 5
      vertex 79.073 -1.76336 5
    endloop
  endfacet
  facet normal -0.587785 -0.809017 -0
    outer loop
      vertex 80.573 -2.85317 5
      vertex 79.073 -1.76336 0
      vertex 80.573 -2.85317 0
    endloop
  endfacet
  facet normal -0.809016 -0.587786 0
    outer loop
      vertex 83 0 0
      vertex 81.9635 1.42658 5
      vertex 81.9635 1.42658 0
    endloop
  endfacet
  facet normal -0.809016 -0.587786 0
    outer loop
      vertex 81.9635 1.42658 5
      vertex 83 0 0
      vertex 83 0 5
    endloop
  endfacet
  facet normal 1 0 0
    outer loop
      vertex 80.2865 0.881678 5
      vertex 80.2865 0 2
      vertex 80.2865 0.881678 2
    endloop
  endfacet
  facet normal 1 -0 0
    outer loop
      vertex 80.2865 -0.881678 5
      vertex 80.2865 0 2
      vertex 80.2865 0.881678 5
    endloop
  endfacet
  facet normal 1 0 0
    outer loop
      vertex 80.2865 -0.881678 0
      vertex 80.2865 0 2
      vertex 80.2865 -0.881678 5
    endloop
  endfacet
  facet normal 1 0 0
    outer loop
      vertex 80.2865 0 2
      vertex 80.2865 -0.881678 0
      vertex 80.2865 0 0
    endloop
  endfacet
  facet normal 0.309017 -0.951057 0
    outer loop
      vertex 81.3345 1.2222 2
      vertex 80.2865 0.881678 5
      vertex 80.2865 0.881678 2
    endloop
  endfacet
  facet normal 0.309017 -0.951056 2.22619e-07
    outer loop
      vertex 80.2865 0.881678 5
      vertex 81.3345 1.2222 2
      vertex 81.9635 1.42658 5
    endloop
  endfacet
  facet normal 0.309018 -0.951056 0
    outer loop
      vertex 81.9635 1.42658 0
      vertex 81.3345 1.2222 2
      vertex 81.3345 1.2222 0
    endloop
  endfacet
  facet normal 0.309018 -0.951056 0
    outer loop
      vertex 81.3345 1.2222 2
      vertex 81.9635 1.42658 0
      vertex 81.9635 1.42658 5
    endloop
  endfacet
  facet normal 0.309017 0.951056 -0
    outer loop
      vertex 81.9635 -1.42658 0
      vertex 80.2865 -0.881678 5
      vertex 81.9635 -1.42658 5
    endloop
  endfacet
  facet normal 0.309017 0.951056 0
    outer loop
      vertex 80.2865 -0.881678 5
      vertex 81.9635 -1.42658 0
      vertex 80.2865 -0.881678 0
    endloop
  endfacet
  facet normal -0.809016 0.587786 0
    outer loop
      vertex 81.9635 -1.42658 0
      vertex 83 0 5
      vertex 83 0 0
    endloop
  endfacet
  facet normal -0.809016 0.587786 0
    outer loop
      vertex 83 0 5
      vertex 81.9635 -1.42658 0
      vertex 81.9635 -1.42658 5
    endloop
  endfacet
  facet normal 0.951056 0.309017 -0
    outer loop
      vertex 4 48 2
      vertex 3.42705 49.7634 5
      vertex 4 48 5
    endloop
  endfacet
  facet normal 0.951056 0.309017 0
    outer loop
      vertex 3.42705 49.7634 5
      vertex 4 48 2
      vertex 3.42705 49.7634 0
    endloop
  endfacet
  facet normal 0.951056 0.309017 0
    outer loop
      vertex 3.42705 49.7634 0
      vertex 4 48 2
      vertex 4 48 0
    endloop
  endfacet
  facet normal -0.951056 0.309017 0
    outer loop
      vertex -2 48 0
      vertex -1.42705 49.7634 5
      vertex -1.42705 49.7634 0
    endloop
  endfacet
  facet normal -0.951056 0.309017 0
    outer loop
      vertex -1.42705 49.7634 5
      vertex -2 48 0
      vertex -2 48 5
    endloop
  endfacet
  facet normal 0 1 -0
    outer loop
      vertex 1.92705 50.8532 0
      vertex 0.0729494 50.8532 5
      vertex 1.92705 50.8532 5
    endloop
  endfacet
  facet normal 0 1 0
    outer loop
      vertex 0.0729494 50.8532 5
      vertex 1.92705 50.8532 0
      vertex 0.0729494 50.8532 0
    endloop
  endfacet
  facet normal 0.587785 0.809017 -0
    outer loop
      vertex 3.42705 49.7634 0
      vertex 1.92705 50.8532 5
      vertex 3.42705 49.7634 5
    endloop
  endfacet
  facet normal 0.587785 0.809017 0
    outer loop
      vertex 1.92705 50.8532 5
      vertex 3.42705 49.7634 0
      vertex 1.92705 50.8532 0
    endloop
  endfacet
  facet normal 0 0 1
    outer loop
      vertex 2.5 48 5
      vertex 4 48 5
      vertex 3.42705 49.7634 5
    endloop
  endfacet
  facet normal 0 0 1
    outer loop
      vertex 4 48 5
      vertex 2.5 48 5
      vertex 3.42705 46.2366 5
    endloop
  endfacet
  facet normal 0 0 1
    outer loop
      vertex 1.46352 49.4266 5
      vertex 3.42705 49.7634 5
      vertex 1.92705 50.8532 5
    endloop
  endfacet
  facet normal 0 0 1
    outer loop
      vertex 3.42705 49.7634 5
      vertex 1.46352 49.4266 5
      vertex 2.5 48 5
    endloop
  endfacet
  facet normal -0 0 1
    outer loop
      vertex 0.0729494 50.8532 5
      vertex 1.46352 49.4266 5
      vertex 1.92705 50.8532 5
    endloop
  endfacet
  facet normal 0 0 1
    outer loop
      vertex 0.0729494 50.8532 5
      vertex -0.213525 48.8817 5
      vertex 1.46352 49.4266 5
    endloop
  endfacet
  facet normal 0 0 1
    outer loop
      vertex -2 48 5
      vertex -0.213525 48.8817 5
      vertex -1.42705 49.7634 5
    endloop
  endfacet
  facet normal -0 0 1
    outer loop
      vertex -1.42705 49.7634 5
      vertex -0.213525 48.8817 5
      vertex 0.0729494 50.8532 5
    endloop
  endfacet
  facet normal -0 0 1
    outer loop
      vertex 1.46352 46.5734 5
      vertex 3.42705 46.2366 5
      vertex 2.5 48 5
    endloop
  endfacet
  facet normal 0 0 1
    outer loop
      vertex 3.42705 46.2366 5
      vertex 1.46352 46.5734 5
      vertex 1.92705 45.1468 5
    endloop
  endfacet
  facet normal 0 0 1
    outer loop
      vertex 1.46352 46.5734 5
      vertex 0.0729494 45.1468 5
      vertex 1.92705 45.1468 5
    endloop
  endfacet
  facet normal 0 0 1
    outer loop
      vertex -0.213525 47.1183 5
      vertex 0.0729494 45.1468 5
      vertex 1.46352 46.5734 5
    endloop
  endfacet
  facet normal 0 0 1
    outer loop
      vertex -0.213525 48.8817 5
      vertex -2 48 5
      vertex -0.213525 47.1183 5
    endloop
  endfacet
  facet normal 0 0 1
    outer loop
      vertex -0.213525 47.1183 5
      vertex -1.42705 46.2366 5
      vertex 0.0729494 45.1468 5
    endloop
  endfacet
  facet normal 0 0 1
    outer loop
      vertex -0.213525 47.1183 5
      vertex -2 48 5
      vertex -1.42705 46.2366 5
    endloop
  endfacet
  facet normal -0.587785 0.809017 0
    outer loop
      vertex 0.0729494 50.8532 0
      vertex -1.42705 49.7634 5
      vertex 0.0729494 50.8532 5
    endloop
  endfacet
  facet normal -0.587785 0.809017 0
    outer loop
      vertex -1.42705 49.7634 5
      vertex 0.0729494 50.8532 0
      vertex -1.42705 49.7634 0
    endloop
  endfacet
  facet normal 0.951056 -0.309017 0
    outer loop
      vertex 3.42705 46.2366 5
      vertex 4 48 2
      vertex 4 48 5
    endloop
  endfacet
  facet normal 0.951056 -0.309017 0
    outer loop
      vertex 4 48 2
      vertex 3.42705 46.2366 5
      vertex 3.42705 46.2366 2
    endloop
  endfacet
  facet normal -0.951056 -0.309017 0
    outer loop
      vertex -1.42705 46.2366 0
      vertex -2 48 5
      vertex -2 48 0
    endloop
  endfacet
  facet normal -0.951056 -0.309017 0
    outer loop
      vertex -2 48 5
      vertex -1.42705 46.2366 0
      vertex -1.42705 46.2366 5
    endloop
  endfacet
  facet normal 0 -1 0
    outer loop
      vertex 0.0729494 45.1468 5
      vertex 0.940559 45.1468 2
      vertex 1.92705 45.1468 5
    endloop
  endfacet
  facet normal 0 -1 0
    outer loop
      vertex 0.0729494 45.1468 0
      vertex 0.940559 45.1468 2
      vertex 0.0729494 45.1468 5
    endloop
  endfacet
  facet normal 0 -1 -0
    outer loop
      vertex 0.940559 45.1468 2
      vertex 0.0729494 45.1468 0
      vertex 0.940559 45.1468 0
    endloop
  endfacet
  facet normal 0 -1 -0
    outer loop
      vertex 1.92705 45.1468 5
      vertex 0.940559 45.1468 2
      vertex 1.92705 45.1468 2
    endloop
  endfacet
  facet normal 0.587785 -0.809017 0
    outer loop
      vertex 1.92705 45.1468 2
      vertex 3.42705 46.2366 5
      vertex 1.92705 45.1468 5
    endloop
  endfacet
  facet normal 0.587785 -0.809017 0
    outer loop
      vertex 3.42705 46.2366 5
      vertex 1.92705 45.1468 2
      vertex 3.42705 46.2366 2
    endloop
  endfacet
  facet normal -0.587785 -0.809017 0
    outer loop
      vertex -1.42705 46.2366 0
      vertex 0.0729494 45.1468 5
      vertex -1.42705 46.2366 5
    endloop
  endfacet
  facet normal -0.587785 -0.809017 -0
    outer loop
      vertex 0.0729494 45.1468 5
      vertex -1.42705 46.2366 0
      vertex 0.0729494 45.1468 0
    endloop
  endfacet
  facet normal -0.809016 -0.587786 -0
    outer loop
      vertex 2.5 48 2
      vertex 1.46352 49.4266 0
      vertex 2.5 48 0
    endloop
  endfacet
  facet normal -0.809016 -0.587786 0
    outer loop
      vertex 1.46352 49.4266 0
      vertex 2.5 48 2
      vertex 1.46352 49.4266 5
    endloop
  endfacet
  facet normal -0.809016 -0.587786 0
    outer loop
      vertex 1.46352 49.4266 5
      vertex 2.5 48 2
      vertex 2.5 48 5
    endloop
  endfacet
  facet normal 1 -0 0
    outer loop
      vertex -0.213525 47.1183 5
      vertex -0.213525 48.8817 0
      vertex -0.213525 48.8817 5
    endloop
  endfacet
  facet normal 1 0 0
    outer loop
      vertex -0.213525 48.8817 0
      vertex -0.213525 47.1183 5
      vertex -0.213525 47.1183 0
    endloop
  endfacet
  facet normal 0.309017 -0.951056 0
    outer loop
      vertex -0.213525 48.8817 0
      vertex 1.46352 49.4266 5
      vertex -0.213525 48.8817 5
    endloop
  endfacet
  facet normal 0.309017 -0.951056 0
    outer loop
      vertex 1.46352 49.4266 5
      vertex -0.213525 48.8817 0
      vertex 1.46352 49.4266 0
    endloop
  endfacet
  facet normal 0.309017 0.951057 0
    outer loop
      vertex 0.973596 46.7326 2
      vertex 1.46352 46.5734 5
      vertex 1.46352 46.5734 2
    endloop
  endfacet
  facet normal 0.309017 0.951056 -8.84199e-08
    outer loop
      vertex 1.46352 46.5734 5
      vertex 0.973596 46.7326 2
      vertex -0.213525 47.1183 5
    endloop
  endfacet
  facet normal 0.309017 0.951056 0
    outer loop
      vertex -0.213525 47.1183 0
      vertex 0.973596 46.7326 2
      vertex 0.973596 46.7326 0
    endloop
  endfacet
  facet normal 0.309017 0.951056 0
    outer loop
      vertex 0.973596 46.7326 2
      vertex -0.213525 47.1183 0
      vertex -0.213525 47.1183 5
    endloop
  endfacet
  facet normal -0.809016 0.587786 0
    outer loop
      vertex 1.46352 46.5734 2
      vertex 2.5 48 5
      vertex 2.5 48 2
    endloop
  endfacet
  facet normal -0.809016 0.587786 0
    outer loop
      vertex 2.5 48 5
      vertex 1.46352 46.5734 2
      vertex 1.46352 46.5734 5
    endloop
  endfacet
  facet normal 0.951056 0.309019 0
    outer loop
      vertex 78 48 5
      vertex 77.427 49.7634 0
      vertex 77.427 49.7634 5
    endloop
  endfacet
  facet normal 0.951056 0.309019 0
    outer loop
      vertex 77.427 49.7634 0
      vertex 78 48 5
      vertex 78 48 0
    endloop
  endfacet
  facet normal -0.951056 0.309019 0
    outer loop
      vertex 72 48 2
      vertex 72.573 49.7634 0
      vertex 72 48 0
    endloop
  endfacet
  facet normal -0.951056 0.309019 0
    outer loop
      vertex 72.573 49.7634 0
      vertex 72 48 2
      vertex 72.573 49.7634 5
    endloop
  endfacet
  facet normal -0.951056 0.309019 0
    outer loop
      vertex 72.573 49.7634 5
      vertex 72 48 2
      vertex 72 48 5
    endloop
  endfacet
  facet normal 0 1 -0
    outer loop
      vertex 75.927 50.8532 0
      vertex 74.073 50.8532 5
      vertex 75.927 50.8532 5
    endloop
  endfacet
  facet normal 0 1 0
    outer loop
      vertex 74.073 50.8532 5
      vertex 75.927 50.8532 0
      vertex 74.073 50.8532 0
    endloop
  endfacet
  facet normal 0.587785 0.809017 -0
    outer loop
      vertex 77.427 49.7634 0
      vertex 75.927 50.8532 5
      vertex 77.427 49.7634 5
    endloop
  endfacet
  facet normal 0.587785 0.809017 0
    outer loop
      vertex 75.927 50.8532 5
      vertex 77.427 49.7634 0
      vertex 75.927 50.8532 0
    endloop
  endfacet
  facet normal 0 0 1
    outer loop
      vertex 76.5 48 5
      vertex 78 48 5
      vertex 77.427 49.7634 5
    endloop
  endfacet
  facet normal 0 0 1
    outer loop
      vertex 78 48 5
      vertex 76.5 48 5
      vertex 77.427 46.2366 5
    endloop
  endfacet
  facet normal 0 0 1
    outer loop
      vertex 75.4635 49.4266 5
      vertex 77.427 49.7634 5
      vertex 75.927 50.8532 5
    endloop
  endfacet
  facet normal 0 0 1
    outer loop
      vertex 77.427 49.7634 5
      vertex 75.4635 49.4266 5
      vertex 76.5 48 5
    endloop
  endfacet
  facet normal -0 0 1
    outer loop
      vertex 74.073 50.8532 5
      vertex 75.4635 49.4266 5
      vertex 75.927 50.8532 5
    endloop
  endfacet
  facet normal 0 0 1
    outer loop
      vertex 74.073 50.8532 5
      vertex 73.7865 48.8817 5
      vertex 75.4635 49.4266 5
    endloop
  endfacet
  facet normal 0 0 1
    outer loop
      vertex 72 48 5
      vertex 73.7865 48.8817 5
      vertex 72.573 49.7634 5
    endloop
  endfacet
  facet normal -0 0 1
    outer loop
      vertex 72.573 49.7634 5
      vertex 73.7865 48.8817 5
      vertex 74.073 50.8532 5
    endloop
  endfacet
  facet normal -0 0 1
    outer loop
      vertex 75.4635 46.5734 5
      vertex 77.427 46.2366 5
      vertex 76.5 48 5
    endloop
  endfacet
  facet normal 0 0 1
    outer loop
      vertex 77.427 46.2366 5
      vertex 75.4635 46.5734 5
      vertex 75.927 45.1468 5
    endloop
  endfacet
  facet normal 0 0 1
    outer loop
      vertex 75.4635 46.5734 5
      vertex 74.073 45.1468 5
      vertex 75.927 45.1468 5
    endloop
  endfacet
  facet normal 0 0 1
    outer loop
      vertex 73.7865 47.1183 5
      vertex 74.073 45.1468 5
      vertex 75.4635 46.5734 5
    endloop
  endfacet
  facet normal 0 0 1
    outer loop
      vertex 73.7865 48.8817 5
      vertex 72 48 5
      vertex 73.7865 47.1183 5
    endloop
  endfacet
  facet normal 0 0 1
    outer loop
      vertex 73.7865 47.1183 5
      vertex 72.573 46.2366 5
      vertex 74.073 45.1468 5
    endloop
  endfacet
  facet normal 0 0 1
    outer loop
      vertex 73.7865 47.1183 5
      vertex 72 48 5
      vertex 72.573 46.2366 5
    endloop
  endfacet
  facet normal -0.587785 0.809017 0
    outer loop
      vertex 74.073 50.8532 0
      vertex 72.573 49.7634 5
      vertex 74.073 50.8532 5
    endloop
  endfacet
  facet normal -0.587785 0.809017 0
    outer loop
      vertex 72.573 49.7634 5
      vertex 74.073 50.8532 0
      vertex 72.573 49.7634 0
    endloop
  endfacet
  facet normal 0.951056 -0.309019 0
    outer loop
      vertex 77.427 46.2366 5
      vertex 78 48 0
      vertex 78 48 5
    endloop
  endfacet
  facet normal 0.951056 -0.309019 0
    outer loop
      vertex 78 48 0
      vertex 77.427 46.2366 5
      vertex 77.427 46.2366 0
    endloop
  endfacet
  facet normal -0.951056 -0.309019 0
    outer loop
      vertex 72.573 46.2366 2
      vertex 72 48 5
      vertex 72 48 2
    endloop
  endfacet
  facet normal -0.951056 -0.309019 0
    outer loop
      vertex 72 48 5
      vertex 72.573 46.2366 2
      vertex 72.573 46.2366 5
    endloop
  endfacet
  facet normal 0 -1 0
    outer loop
      vertex 75.3864 45.1468 2
      vertex 74.073 45.1468 5
      vertex 74.073 45.1468 2
    endloop
  endfacet
  facet normal 0 -1 0
    outer loop
      vertex 74.073 45.1468 5
      vertex 75.3864 45.1468 2
      vertex 75.927 45.1468 5
    endloop
  endfacet
  facet normal 0 -1 0
    outer loop
      vertex 75.927 45.1468 0
      vertex 75.3864 45.1468 2
      vertex 75.3864 45.1468 0
    endloop
  endfacet
  facet normal 0 -1 0
    outer loop
      vertex 75.3864 45.1468 2
      vertex 75.927 45.1468 0
      vertex 75.927 45.1468 5
    endloop
  endfacet
  facet normal 0.587785 -0.809017 0
    outer loop
      vertex 75.927 45.1468 0
      vertex 77.427 46.2366 5
      vertex 75.927 45.1468 5
    endloop
  endfacet
  facet normal 0.587785 -0.809017 0
    outer loop
      vertex 77.427 46.2366 5
      vertex 75.927 45.1468 0
      vertex 77.427 46.2366 0
    endloop
  endfacet
  facet normal -0.587785 -0.809017 0
    outer loop
      vertex 72.573 46.2366 2
      vertex 74.073 45.1468 5
      vertex 72.573 46.2366 5
    endloop
  endfacet
  facet normal -0.587785 -0.809017 -0
    outer loop
      vertex 74.073 45.1468 5
      vertex 72.573 46.2366 2
      vertex 74.073 45.1468 2
    endloop
  endfacet
  facet normal -0.809016 -0.587787 0
    outer loop
      vertex 76.5 48 0
      vertex 75.4635 49.4266 5
      vertex 75.4635 49.4266 0
    endloop
  endfacet
  facet normal -0.809016 -0.587787 0
    outer loop
      vertex 75.4635 49.4266 5
      vertex 76.5 48 0
      vertex 76.5 48 5
    endloop
  endfacet
  facet normal 1 0 0
    outer loop
      vertex 73.7865 48.8817 5
      vertex 73.7865 48 2
      vertex 73.7865 48.8817 0
    endloop
  endfacet
  facet normal 1 -0 0
    outer loop
      vertex 73.7865 47.1183 5
      vertex 73.7865 48 2
      vertex 73.7865 48.8817 5
    endloop
  endfacet
  facet normal 1 0 0
    outer loop
      vertex 73.7865 48 2
      vertex 73.7865 47.1183 5
      vertex 73.7865 47.1183 2
    endloop
  endfacet
  facet normal 1 0 0
    outer loop
      vertex 73.7865 48.8817 0
      vertex 73.7865 48 2
      vertex 73.7865 48 0
    endloop
  endfacet
  facet normal 0.309017 -0.951056 0
    outer loop
      vertex 73.7865 48.8817 0
      vertex 75.4635 49.4266 5
      vertex 73.7865 48.8817 5
    endloop
  endfacet
  facet normal 0.309017 -0.951056 0
    outer loop
      vertex 75.4635 49.4266 5
      vertex 73.7865 48.8817 0
      vertex 75.4635 49.4266 0
    endloop
  endfacet
  facet normal 0.309017 0.951056 -4.00825e-07
    outer loop
      vertex 75.4635 46.5734 5
      vertex 75.1807 46.6653 2
      vertex 73.7865 47.1183 5
    endloop
  endfacet
  facet normal 0.309014 0.951058 -0
    outer loop
      vertex 75.4635 46.5734 0
      vertex 75.1807 46.6653 2
      vertex 75.4635 46.5734 5
    endloop
  endfacet
  facet normal 0.309014 0.951058 0
    outer loop
      vertex 75.1807 46.6653 2
      vertex 75.4635 46.5734 0
      vertex 75.1807 46.6653 0
    endloop
  endfacet
  facet normal 0.309018 0.951056 0
    outer loop
      vertex 73.7865 47.1183 5
      vertex 75.1807 46.6653 2
      vertex 73.7865 47.1183 2
    endloop
  endfacet
  facet normal -0.809016 0.587787 0
    outer loop
      vertex 75.4635 46.5734 0
      vertex 76.5 48 5
      vertex 76.5 48 0
    endloop
  endfacet
  facet normal -0.809016 0.587787 0
    outer loop
      vertex 76.5 48 5
      vertex 75.4635 46.5734 0
      vertex 75.4635 46.5734 5
    endloop
  endfacet
  facet normal -0 0 1
    outer loop
      vertex 1 48 2
      vertex 1.46352 46.5734 2
      vertex 2.5 48 2
    endloop
  endfacet
  facet normal 0 0 1
    outer loop
      vertex 1.46352 46.5734 2
      vertex 1 48 2
      vertex 0.973596 46.7326 2
    endloop
  endfacet
  facet normal 0 0 1
    outer loop
      vertex 73.7865 47.1183 2
      vertex 75 48 2
      vertex 73.7865 48 2
    endloop
  endfacet
  facet normal 0 0 1
    outer loop
      vertex 75 48 2
      vertex 73.7865 47.1183 2
      vertex 75.1807 46.6653 2
    endloop
  endfacet
  facet normal -0 0 1
    outer loop
      vertex 80.2865 0.881678 2
      vertex 81.5 0 2
      vertex 81.3345 1.2222 2
    endloop
  endfacet
  facet normal 0 0 1
    outer loop
      vertex 81.5 0 2
      vertex 80.2865 0.881678 2
      vertex 80.2865 0 2
    endloop
  endfacet
  facet normal 0 0 1
    outer loop
      vertex 0 0 2
      vertex 0.463525 1.42658 2
      vertex 0.026764 1.28467 2
    endloop
  endfacet
  facet normal 0 0 1
    outer loop
      vertex 0.463525 1.42658 2
      vertex 0 0 2
      vertex 1.5 0 2
    endloop
  endfacet
  facet normal 0 0 1
    outer loop
      vertex 80.573 2.85317 2
      vertex 78.5 3 2
      vertex 79.073 1.76336 2
    endloop
  endfacet
  facet normal 0 0 1
    outer loop
      vertex 81.1136 2.85317 2
      vertex 78.5 3 2
      vertex 80.573 2.85317 2
    endloop
  endfacet
  facet normal 0 0 1
    outer loop
      vertex 75.3864 45.1468 2
      vertex 78.5 3 2
      vertex 81.1136 2.85317 2
    endloop
  endfacet
  facet normal -0 0 1
    outer loop
      vertex 74.073 45.1468 2
      vertex 78.5 3 2
      vertex 75.3864 45.1468 2
    endloop
  endfacet
  facet normal 0 0 1
    outer loop
      vertex 72 45 2
      vertex 74.073 45.1468 2
      vertex 72.573 46.2366 2
    endloop
  endfacet
  facet normal 0 0 1
    outer loop
      vertex 72 45 2
      vertex 72.573 46.2366 2
      vertex 72 48 2
    endloop
  endfacet
  facet normal 0 0 1
    outer loop
      vertex 74.073 45.1468 2
      vertex 72 45 2
      vertex 78.5 3 2
    endloop
  endfacet
  facet normal -0 0 1
    outer loop
      vertex 4 48 2
      vertex 72 45 2
      vertex 72 48 2
    endloop
  endfacet
  facet normal 0 0 1
    outer loop
      vertex 4 48 2
      vertex 4 45 2
      vertex 72 45 2
    endloop
  endfacet
  facet normal -0 0 1
    outer loop
      vertex 3.42705 46.2366 2
      vertex 4 45 2
      vertex 4 48 2
    endloop
  endfacet
  facet normal -0 0 1
    outer loop
      vertex 1.92705 45.1468 2
      vertex 4 45 2
      vertex 3.42705 46.2366 2
    endloop
  endfacet
  facet normal 0 0 1
    outer loop
      vertex 3 3 2
      vertex 2.42705 1.76336 2
      vertex 3 0 2
    endloop
  endfacet
  facet normal 0 0 1
    outer loop
      vertex 4 45 2
      vertex 1.92705 45.1468 2
      vertex 3 3 2
    endloop
  endfacet
  facet normal -0 0 1
    outer loop
      vertex 0.940559 45.1468 2
      vertex 3 3 2
      vertex 1.92705 45.1468 2
    endloop
  endfacet
  facet normal 0 0 1
    outer loop
      vertex 3 3 2
      vertex 0.940559 45.1468 2
      vertex 0.927051 2.85317 2
    endloop
  endfacet
  facet normal 0 0 1
    outer loop
      vertex 3 3 2
      vertex 0.927051 2.85317 2
      vertex 2.42705 1.76336 2
    endloop
  endfacet
  facet normal 0 -0 1
    outer loop
      vertex 0.927051 2.85317 2
      vertex 0.940559 45.1468 2
      vertex 0.059441 2.85317 2
    endloop
  endfacet
  facet normal 0 0 1
    outer loop
      vertex 78.5 3 2
      vertex 78.5 0 2
      vertex 79.073 1.76336 2
    endloop
  endfacet
  facet normal 0 0 1
    outer loop
      vertex 78.5 3 2
      vertex 20 0 2
      vertex 78.5 0 2
    endloop
  endfacet
  facet normal -0 0 1
    outer loop
      vertex 3 3 2
      vertex 20 0 2
      vertex 78.5 3 2
    endloop
  endfacet
  facet normal 0 0 1
    outer loop
      vertex 20 0 2
      vertex 3 3 2
      vertex 3 0 2
    endloop
  endfacet
  facet normal 0 1 -0
    outer loop
      vertex 2.5 48 0
      vertex 1 48 2
      vertex 2.5 48 2
    endloop
  endfacet
  facet normal 0 1 0
    outer loop
      vertex 1 48 2
      vertex 2.5 48 0
      vertex 1 48 0
    endloop
  endfacet
  facet normal 0 1 -0
    outer loop
      vertex 75 48 0
      vertex 73.7865 48 2
      vertex 75 48 2
    endloop
  endfacet
  facet normal 0 1 0
    outer loop
      vertex 73.7865 48 2
      vertex 75 48 0
      vertex 73.7865 48 0
    endloop
  endfacet
  facet normal 0 1 -0
    outer loop
      vertex 72 48 0
      vertex 4 48 2
      vertex 72 48 2
    endloop
  endfacet
  facet normal 0 1 0
    outer loop
      vertex 4 48 2
      vertex 72 48 0
      vertex 4 48 0
    endloop
  endfacet
  facet normal -0.999783 0.0208288 0
    outer loop
      vertex 0 0 0
      vertex 0.026764 1.28467 2
      vertex 0.026764 1.28467 0
    endloop
  endfacet
  facet normal -0.999783 0.0208288 0
    outer loop
      vertex 0.026764 1.28467 2
      vertex 0 0 0
      vertex 0 0 2
    endloop
  endfacet
  facet normal -0.999783 0.0208288 0
    outer loop
      vertex 0.973596 46.7326 0
      vertex 1 48 2
      vertex 1 48 0
    endloop
  endfacet
  facet normal -0.999783 0.0208288 0
    outer loop
      vertex 1 48 2
      vertex 0.973596 46.7326 0
      vertex 0.973596 46.7326 2
    endloop
  endfacet
  facet normal -0.999783 0.0208288 0
    outer loop
      vertex 0.059441 2.85317 0
      vertex 0.940559 45.1468 2
      vertex 0.940559 45.1468 0
    endloop
  endfacet
  facet normal -0.999783 0.0208288 0
    outer loop
      vertex 0.940559 45.1468 2
      vertex 0.059441 2.85317 0
      vertex 0.059441 2.85317 2
    endloop
  endfacet
  facet normal 0 1 -0
    outer loop
      vertex 20 0 2
      vertex 3 0 3
      vertex 20 0 3
    endloop
  endfacet
  facet normal 0 1 0
    outer loop
      vertex 3 0 3
      vertex 20 0 2
      vertex 3 0 2
    endloop
  endfacet
  facet normal 0 -1 0
    outer loop
      vertex 20 0 0
      vertex 78.5 0 2
      vertex 20 0 2
    endloop
  endfacet
  facet normal 0 -1 -0
    outer loop
      vertex 78.5 0 2
      vertex 20 0 0
      vertex 78.5 0 0
    endloop
  endfacet
  facet normal 0 1 -0
    outer loop
      vertex 1.5 0 2
      vertex 0 0 3
      vertex 1.5 0 3
    endloop
  endfacet
  facet normal 0 1 0
    outer loop
      vertex 0 0 3
      vertex 1.5 0 2
      vertex 0 0 2
    endloop
  endfacet
  facet normal 0 -1 0
    outer loop
      vertex 80.2865 0 0
      vertex 81.5 0 2
      vertex 80.2865 0 2
    endloop
  endfacet
  facet normal 0 -1 -0
    outer loop
      vertex 81.5 0 2
      vertex 80.2865 0 0
      vertex 81.5 0 0
    endloop
  endfacet
  facet normal 0.990956 0.13419 0
    outer loop
      vertex 81.5 0 2
      vertex 81.3345 1.2222 0
      vertex 81.3345 1.2222 2
    endloop
  endfacet
  facet normal 0.990956 0.13419 0
    outer loop
      vertex 81.3345 1.2222 0
      vertex 81.5 0 2
      vertex 81.5 0 0
    endloop
  endfacet
  facet normal 0.990955 0.134192 0
    outer loop
      vertex 75.1807 46.6653 2
      vertex 75 48 0
      vertex 75 48 2
    endloop
  endfacet
  facet normal 0.990955 0.134192 0
    outer loop
      vertex 75 48 0
      vertex 75.1807 46.6653 2
      vertex 75.1807 46.6653 0
    endloop
  endfacet
  facet normal 0.990955 0.134192 0
    outer loop
      vertex 81.1136 2.85317 2
      vertex 75.3864 45.1468 0
      vertex 75.3864 45.1468 2
    endloop
  endfacet
  facet normal 0.990955 0.134192 0
    outer loop
      vertex 75.3864 45.1468 0
      vertex 81.1136 2.85317 2
      vertex 81.1136 2.85317 0
    endloop
  endfacet
  facet normal 0.999717 -0.0238028 0
    outer loop
      vertex 3 3 2
      vertex 4 45 0
      vertex 4 45 2
    endloop
  endfacet
  facet normal 0.999717 -0.0238028 0
    outer loop
      vertex 4 45 0
      vertex 3 3 2
      vertex 3 3 0
    endloop
  endfacet
  facet normal 0 -1 0
    outer loop
      vertex 4 45 0
      vertex 72 45 2
      vertex 4 45 2
    endloop
  endfacet
  facet normal 0 -1 -0
    outer loop
      vertex 72 45 2
      vertex 4 45 0
      vertex 72 45 0
    endloop
  endfacet
  facet normal -0.988235 -0.152941 0
    outer loop
      vertex 78.5 3 0
      vertex 72 45 2
      vertex 72 45 0
    endloop
  endfacet
  facet normal -0.988235 -0.152941 0
    outer loop
      vertex 72 45 2
      vertex 78.5 3 0
      vertex 78.5 3 2
    endloop
  endfacet
  facet normal 0 1 -0
    outer loop
      vertex 78.5 3 0
      vertex 3 3 2
      vertex 78.5 3 2
    endloop
  endfacet
  facet normal 0 1 0
    outer loop
      vertex 3 3 2
      vertex 78.5 3 0
      vertex 3 3 0
    endloop
  endfacet
  facet normal -1 0 0
    outer loop
      vertex 0 -2.85317 0
      vertex 0 -4 3
      vertex 0 -2.85317 3
    endloop
  endfacet
  facet normal -1 0 0
    outer loop
      vertex 0 -6 0
      vertex 0 -4 3
      vertex 0 -2.85317 0
    endloop
  endfacet
  facet normal -1 0 0
    outer loop
      vertex 0 -6 7
      vertex 0 -4 3
      vertex 0 -6 0
    endloop
  endfacet
  facet normal -1 0 0
    outer loop
      vertex 0 -4 3
      vertex 0 -6 7
      vertex 0 -4 9
    endloop
  endfacet
  facet normal -1 0 0
    outer loop
      vertex 0 -22 9
      vertex 0 -6 7
      vertex 0 -22 7
    endloop
  endfacet
  facet normal -1 0 0
    outer loop
      vertex 0 -6 7
      vertex 0 -22 9
      vertex 0 -4 9
    endloop
  endfacet
  facet normal -1 0 0
    outer loop
      vertex 0 -1.27598 0
      vertex 0 0 2
      vertex 0 0 0
    endloop
  endfacet
  facet normal -1 0 0
    outer loop
      vertex 0 -1.27598 3
      vertex 0 0 2
      vertex 0 -1.27598 0
    endloop
  endfacet
  facet normal -1 0 0
    outer loop
      vertex 0 0 2
      vertex 0 -1.27598 3
      vertex 0 0 3
    endloop
  endfacet
  facet normal -0 0 1
    outer loop
      vertex 3 0 3
      vertex 20 -4 3
      vertex 20 0 3
    endloop
  endfacet
  facet normal -0 0 1
    outer loop
      vertex 2.42705 -1.76336 3
      vertex 20 -4 3
      vertex 3 0 3
    endloop
  endfacet
  facet normal 0 0 1
    outer loop
      vertex 0 -4 3
      vertex 2.42705 -1.76336 3
      vertex 0.927051 -2.85317 3
    endloop
  endfacet
  facet normal 0 0 1
    outer loop
      vertex 0 -4 3
      vertex 0.927051 -2.85317 3
      vertex 0 -2.85317 3
    endloop
  endfacet
  facet normal 0 0 1
    outer loop
      vertex 2.42705 -1.76336 3
      vertex 0 -4 3
      vertex 20 -4 3
    endloop
  endfacet
  facet normal -0 0 1
    outer loop
      vertex 0 0 3
      vertex 0.463525 -1.42658 3
      vertex 1.5 0 3
    endloop
  endfacet
  facet normal 0 0 1
    outer loop
      vertex 0.463525 -1.42658 3
      vertex 0 0 3
      vertex 0 -1.27598 3
    endloop
  endfacet
  facet normal 1 0 0
    outer loop
      vertex 20 -4 9
      vertex 20 -6 7
      vertex 20 -4 3
    endloop
  endfacet
  facet normal 1 -0 0
    outer loop
      vertex 20 -13 9
      vertex 20 -6 7
      vertex 20 -4 9
    endloop
  endfacet
  facet normal 1 0 0
    outer loop
      vertex 20 -6 7
      vertex 20 -13 9
      vertex 20 -13 7
    endloop
  endfacet
  facet normal 1 -0 0
    outer loop
      vertex 20 -4 3
      vertex 20 0 2
      vertex 20 0 3
    endloop
  endfacet
  facet normal 1 0 0
    outer loop
      vertex 20 0 2
      vertex 20 -4 3
      vertex 20 0 0
    endloop
  endfacet
  facet normal 1 0 0
    outer loop
      vertex 20 -4 3
      vertex 20 -6 0
      vertex 20 0 0
    endloop
  endfacet
  facet normal 1 0 0
    outer loop
      vertex 20 -6 0
      vertex 20 -4 3
      vertex 20 -6 7
    endloop
  endfacet
  facet normal 0 -1 0
    outer loop
      vertex 0 -6 0
      vertex 20 -6 7
      vertex 0 -6 7
    endloop
  endfacet
  facet normal 0 -1 -0
    outer loop
      vertex 20 -6 7
      vertex 0 -6 0
      vertex 20 -6 0
    endloop
  endfacet
  facet normal 0 0 1
    outer loop
      vertex 20 -4 9
      vertex 0 -4 9
      vertex 20 -13 9
    endloop
  endfacet
  facet normal 0 0 1
    outer loop
      vertex 20 -13 9
      vertex 35 -33 9
      vertex 35 -18 9
    endloop
  endfacet
  facet normal 0 0 1
    outer loop
      vertex 0 -22 9
      vertex 20 -13 9
      vertex 0 -4 9
    endloop
  endfacet
  facet normal 0 0 1
    outer loop
      vertex 20 -13 9
      vertex 0 -22 9
      vertex 35 -33 9
    endloop
  endfacet
  facet normal 0 1 -0
    outer loop
      vertex 20 -4 3
      vertex 0 -4 9
      vertex 20 -4 9
    endloop
  endfacet
  facet normal 0 1 0
    outer loop
      vertex 0 -4 9
      vertex 20 -4 3
      vertex 0 -4 3
    endloop
  endfacet
  facet normal 0 0 -1
    outer loop
      vertex 35 -33 7
      vertex 20 -13 7
      vertex 35 -18 7
    endloop
  endfacet
  facet normal 0 0 -1
    outer loop
      vertex 0 -22 7
      vertex 20 -13 7
      vertex 35 -33 7
    endloop
  endfacet
  facet normal 0 0 -1
    outer loop
      vertex 0 -6 7
      vertex 20 -13 7
      vertex 0 -22 7
    endloop
  endfacet
  facet normal 0 0 -1
    outer loop
      vertex 20 -13 7
      vertex 0 -6 7
      vertex 20 -6 7
    endloop
  endfacet
  facet normal 0.316228 0.948683 -0
    outer loop
      vertex 35 -18 7
      vertex 20 -13 9
      vertex 35 -18 9
    endloop
  endfacet
  facet normal 0.316228 0.948683 0
    outer loop
      vertex 20 -13 9
      vertex 35 -18 7
      vertex 20 -13 7
    endloop
  endfacet
  facet normal -0.299827 -0.953994 0
    outer loop
      vertex 0 -22 7
      vertex 35 -33 9
      vertex 0 -22 9
    endloop
  endfacet
  facet normal -0.299827 -0.953994 -0
    outer loop
      vertex 35 -33 9
      vertex 0 -22 7
      vertex 35 -33 7
    endloop
  endfacet
  facet normal 1 -0 0
    outer loop
      vertex 35 -33 9
      vertex 35 -18 7
      vertex 35 -18 9
    endloop
  endfacet
  facet normal 1 0 0
    outer loop
      vertex 35 -18 7
      vertex 35 -33 9
      vertex 35 -33 7
    endloop
  endfacet
endsolid OpenSCAD_Model
